<?xml version="1.0" standalone="no"?>
<!DOCTYPE svg PUBLIC "-//W3C//DTD SVG 20010904//EN"
 "http://www.w3.org/TR/2001/REC-SVG-20010904/DTD/svg10.dtd">
<svg version="1.0" xmlns="http://www.w3.org/2000/svg"
 width="500.000000pt" height="500.000000pt" viewBox="0 0 500.000000 500.000000"
 preserveAspectRatio="xMidYMid meet">
<metadata>
Created by potrace 1.14, written by Peter Selinger 2001-2017
</metadata>
<g transform="translate(0.000000,500.000000) scale(0.100000,-0.100000)"
fill="#000000" stroke="none">
<path d="M0 2500 l0 -2500 2500 0 2500 0 0 2500 0 2500 -2500 0 -2500 0 0
-2500z m3135 2359 c76 -21 135 -116 135 -216 l0 -33 -90 0 -90 0 0 39 c0 70
-62 87 -68 18 -3 -35 2 -42 100 -140 134 -132 143 -151 143 -292 0 -99 -3
-115 -25 -154 -31 -56 -74 -81 -148 -88 -161 -15 -242 70 -242 254 l0 73 85 0
85 0 0 -69 c0 -50 4 -74 16 -85 34 -35 64 -11 64 51 0 62 -20 96 -120 198
-113 117 -125 139 -125 240 0 69 4 86 27 126 46 79 143 108 253 78z m-2509
-15 c73 -35 111 -141 101 -283 -11 -153 -59 -213 -177 -219 l-70 -4 0 -169 0
-169 -85 0 -85 0 0 430 0 430 141 0 c109 0 149 -4 175 -16z m519 -14 c39 -36
45 -52 54 -133 12 -105 -1 -182 -36 -219 -25 -26 -26 -31 -12 -41 35 -26 39
-54 39 -246 l0 -191 -85 0 -85 0 0 183 c0 189 -4 207 -42 207 -17 0 -18 -14
-18 -195 l0 -195 -90 0 -90 0 0 431 0 430 169 -3 c165 -3 170 -4 196 -28z
m463 -52 l-3 -83 -82 -3 -83 -3 0 -79 0 -80 80 0 80 0 0 -85 0 -85 -80 0 -80
0 0 -95 0 -95 90 0 90 0 0 -85 0 -85 -180 0 -180 0 0 430 0 430 175 0 176 0
-3 -82z m397 62 c27 -13 50 -34 66 -63 24 -42 24 -43 24 -337 0 -295 0 -295
-25 -345 -19 -38 -35 -55 -70 -72 -40 -21 -59 -23 -187 -23 l-143 0 0 430 0
430 147 0 c126 0 152 -3 188 -20z m325 -410 l0 -430 -85 0 -85 0 0 430 0 430
85 0 85 0 0 -430z m242 278 l3 -153 34 153 34 152 89 0 c80 0 89 -2 84 -17 -2
-10 -24 -98 -47 -195 l-43 -178 54 -222 c29 -123 55 -229 58 -235 3 -10 -18
-13 -87 -13 -86 0 -91 1 -96 23 -3 12 -23 99 -44 192 l-40 170 0 -192 -1 -193
-90 0 -90 0 0 430 0 430 90 0 89 0 3 -152z m918 -278 l0 -430 -85 0 -85 0 0
430 0 430 85 0 85 0 0 -430z m480 275 l0 -155 35 0 35 0 0 155 0 155 90 0 90
0 0 -430 0 -430 -90 0 -90 0 0 195 0 195 -35 0 -35 0 0 -195 0 -195 -90 0 -90
0 0 430 0 430 90 0 90 0 0 -155z m491 -2 c0 -181 5 -179 49 16 17 74 32 136
34 138 2 2 42 3 88 1 l85 -3 -47 -193 -47 -194 24 -96 c14 -54 40 -159 58
-235 l33 -138 -91 3 -91 3 -42 185 -42 185 -1 -187 -1 -188 -90 0 -90 0 0 430
0 430 85 0 85 0 1 -157z m-2217 -986 c22 -32 50 -67 64 -78 14 -10 20 -19 15
-19 -17 0 -90 85 -113 132 -27 52 -17 43 34 -35z m245 1 c41 -8 63 -19 90 -47
21 -20 25 -26 11 -14 -32 28 -89 48 -160 58 -68 9 -103 26 -40 19 25 -3 69
-10 99 -16z m-194 -136 c-6 -7 -46 25 -63 50 -12 17 -5 13 25 -12 23 -19 40
-36 38 -38z m2 -59 c14 -10 51 -23 82 -29 39 -9 47 -13 26 -13 -42 -1 -95 16
-125 39 -31 24 -19 26 17 3z m133 -129 c47 -25 65 -29 135 -29 71 1 87 4 139
33 58 31 86 39 86 24 0 -4 27 -18 61 -31 71 -27 126 -72 145 -118 9 -21 14
-73 14 -147 0 -126 7 -153 50 -203 35 -40 40 -22 10 37 -11 22 -20 49 -20 60
0 30 27 78 51 90 36 20 49 6 49 -54 0 -39 4 -55 15 -60 10 -4 15 -20 15 -53 1
-26 9 -66 20 -88 56 -115 -13 -194 -96 -111 -29 29 -33 30 -29 12 19 -89 25
-146 15 -170 -16 -42 -11 -55 6 -16 9 22 13 48 9 68 l-6 33 24 -16 c25 -16 62
-65 91 -120 8 -16 15 -23 16 -14 0 8 -13 36 -29 61 -29 46 -29 46 -8 52 12 3
56 6 97 6 92 0 144 -22 188 -77 47 -59 100 -177 108 -239 12 -97 -25 -229 -79
-286 -21 -23 -35 -28 -75 -28 -99 0 -202 78 -274 208 -44 79 -57 93 -33 35 36
-86 95 -164 158 -209 l29 -20 -23 -39 c-62 -107 -137 -180 -229 -224 -73 -34
-196 -36 -280 -3 -52 20 -54 20 -32 2 36 -30 97 -42 187 -38 136 5 238 70 341
214 24 34 51 65 59 68 9 3 25 -4 37 -16 19 -19 20 -28 15 -127 -17 -346 -245
-611 -602 -702 -136 -35 -330 -33 -480 5 -228 57 -389 165 -461 310 -19 40
-38 91 -41 114 -5 36 -2 44 31 77 35 34 39 36 55 21 27 -24 54 -19 87 15 16
17 41 40 56 50 27 20 27 20 70 -2 63 -32 150 -36 220 -9 32 12 60 25 63 30 3
4 -18 0 -45 -11 -62 -23 -155 -25 -210 -3 -22 9 -40 19 -40 23 0 5 23 20 50
35 98 53 102 115 14 222 -30 37 -64 83 -74 104 -28 54 -79 100 -127 112 -24 6
-43 13 -43 15 0 3 8 17 18 31 10 15 22 36 25 47 6 20 6 20 -6 0 -7 -10 -25
-33 -41 -49 l-29 -30 -16 24 c-36 56 -86 101 -143 130 -34 16 -70 30 -80 30
-67 0 81 72 188 92 70 12 84 8 63 -19 -13 -17 -12 -17 6 -2 11 9 43 28 71 42
46 23 51 24 61 9 9 -14 11 -10 7 18 -3 19 -1 67 3 107 l9 72 -34 -30 c-25 -22
-42 -29 -65 -27 -28 3 -33 8 -41 41 -8 30 -5 47 12 90 12 29 22 71 22 93 0 27
7 49 20 64 14 16 20 37 20 72 0 41 3 48 19 48 11 0 31 -14 46 -32 30 -36 30
-69 1 -147 -9 -24 -15 -45 -14 -47 2 -1 19 16 38 39 l35 42 5 140 c6 160 16
187 81 235 22 16 63 36 90 45 33 11 49 22 45 30 -6 18 32 6 104 -31z m861
-670 c30 -9 67 -23 83 -31 l30 -15 -25 -13 c-14 -8 -68 -14 -127 -16 -95 -3
-103 -1 -127 21 -14 13 -25 32 -25 42 0 18 2 18 30 -2 36 -25 73 -21 90 10 13
24 5 23 71 4z m238 -99 c52 -35 104 -114 132 -195 17 -54 20 -80 16 -155 -6
-119 -35 -195 -97 -257 -40 -41 -53 -48 -86 -48 -56 0 -75 16 -30 24 82 16
142 151 134 306 -4 78 -9 98 -43 166 -39 79 -120 174 -150 174 -8 0 -15 5 -15
11 0 22 97 4 139 -26z m188 -240 c18 -34 28 -72 31 -117 6 -80 -15 -132 -77
-192 l-40 -39 24 60 c46 113 54 248 20 348 -10 30 10 1 42 -60z m-2012 25 c52
-25 145 -113 145 -137 0 -29 -61 -14 -107 27 -88 77 -209 101 -277 55 -20 -13
-36 -20 -36 -14 0 26 34 72 63 85 48 21 151 14 212 -16z m-39 -81 c66 -31 100
-61 89 -79 -5 -8 -20 0 -44 24 -51 50 -95 61 -183 46 -74 -13 -88 -10 -68 15
34 41 113 39 206 -6z m25 -57 l40 -37 -45 -32 c-61 -43 -160 -170 -186 -240
-23 -60 -32 -169 -17 -210 12 -34 -11 -29 -73 15 -71 49 -126 122 -150 201
-25 78 -25 134 -1 187 16 36 29 45 122 91 119 59 123 60 207 62 59 1 65 -1
103 -37z m260 -34 c51 -17 79 -43 122 -110 21 -34 58 -86 83 -116 33 -41 44
-62 44 -89 0 -52 -13 -68 -96 -114 -42 -23 -99 -61 -126 -85 -27 -24 -52 -44
-55 -44 -16 0 -43 35 -43 57 0 63 52 128 133 163 50 22 57 29 30 26 -13 -1
-18 6 -18 27 1 26 0 27 -12 11 -7 -10 -13 -25 -13 -35 0 -9 -14 -22 -31 -30
-31 -12 -33 -12 -70 31 -21 24 -36 48 -32 53 3 5 21 7 40 4 43 -7 109 17 125
46 9 18 6 17 -21 -6 -18 -15 -41 -27 -51 -27 -14 0 -11 7 16 34 26 26 34 42
33 68 l-1 33 -9 -30 c-12 -40 -27 -58 -69 -84 -45 -27 -63 -26 -95 2 -20 16
-28 35 -32 69 -5 40 -2 50 20 72 14 14 22 26 17 26 -19 0 -50 -54 -50 -88 0
-29 -2 -33 -15 -22 -8 7 -15 9 -15 5 0 -9 86 -119 120 -154 54 -55 55 -58 25
-93 -26 -31 -38 -34 -74 -22 -11 3 -10 9 5 26 19 21 19 21 -3 9 -30 -16 -53
-14 -77 7 l-21 17 20 -24 c11 -13 41 -34 68 -47 39 -20 47 -29 47 -52 0 -38
-17 -52 -63 -52 -35 0 -38 2 -32 23 5 19 4 20 -5 5 -7 -12 -24 -18 -48 -19
l-37 -1 40 -13 c22 -8 56 -14 75 -15 33 -1 34 -1 15 -16 -28 -21 -68 -30 -73
-16 -2 8 -10 7 -25 -2 -48 -30 -178 29 -213 96 -23 44 -20 140 6 210 46 124
173 258 271 287 48 13 130 13 170 -1z m1492 -309 c16 -59 2 -266 -23 -339 -52
-156 -143 -270 -277 -349 -86 -51 -224 -97 -313 -105 l-65 -6 65 20 c100 30
230 83 230 92 0 5 4 7 9 4 4 -3 17 2 27 10 10 9 13 12 5 8 -9 -4 -12 -3 -7 4
4 6 13 9 20 6 7 -3 24 8 38 24 13 15 30 26 38 24 8 -3 12 -2 9 2 -4 4 7 21 22
37 16 17 29 38 29 46 0 8 4 12 8 9 4 -2 14 5 22 17 11 19 11 21 -1 12 -8 -5
-6 -2 5 8 11 10 21 26 22 34 2 9 8 19 14 23 7 4 11 10 11 14 0 3 11 31 25 61
13 31 22 60 19 65 -3 6 -2 10 3 10 5 0 9 14 10 32 0 17 5 34 9 37 5 3 10 15
10 26 3 56 15 160 18 163 2 2 -1 15 -6 29 -7 18 -6 24 3 21 7 -3 16 -20 21
-39z m46 -364 c1 -200 -56 -375 -156 -479 -78 -82 -89 -86 -244 -86 -133 0
-139 1 -194 30 -46 24 -70 30 -124 31 l-66 1 45 10 c42 9 173 -1 228 -18 15
-5 15 -4 -1 9 -23 19 -144 40 -197 35 -21 -2 -37 -1 -34 3 2 3 35 9 73 13 88
8 215 47 306 94 103 54 223 176 269 272 35 73 75 207 77 259 3 65 18 -74 18
-174z m-1715 33 c-4 -30 35 -132 57 -148 3 -3 9 -14 13 -25 3 -11 17 -32 31
-47 14 -16 23 -28 20 -28 -3 0 13 -20 36 -45 40 -42 69 -60 53 -32 -4 6 8 -4
27 -23 19 -19 50 -43 69 -53 63 -31 -10 -8 -88 29 -145 67 -240 191 -250 323
-4 61 -2 70 14 74 11 3 20 5 21 6 1 0 0 -14 -3 -31z m-17 -176 c75 -156 301
-284 548 -310 l70 -8 -86 -6 c-81 -6 -169 -31 -157 -44 3 -3 23 -1 44 5 66 17
157 23 199 13 l40 -10 -60 -1 c-65 -2 -126 -20 -154 -45 -14 -13 -44 -16 -160
-16 -157 0 -171 5 -231 74 -83 96 -114 196 -114 366 0 69 4 139 9 155 7 27 9
22 16 -43 5 -44 19 -94 36 -130z m403 -252 c18 -12 2 -12 -25 0 -13 6 -15 9
-5 9 8 0 22 -4 30 -9z m321 -52 c54 -8 89 -8 155 2 47 7 88 9 91 6 4 -3 -3
-20 -15 -36 -12 -16 -22 -39 -22 -50 0 -11 -7 -23 -16 -27 -21 -8 -64 16 -64
36 0 11 -4 9 -16 -7 -17 -25 -59 -29 -68 -7 -5 13 -9 12 -26 -5 -31 -31 -63
-23 -71 18 -4 18 -14 41 -23 51 -32 35 -26 36 75 19z m-61 -102 c0 -22 35 -29
67 -13 27 13 63 13 63 -1 0 -21 -63 -32 -177 -32 -102 0 -123 3 -123 15 0 17
78 43 133 44 26 1 37 -3 37 -13z m415 2 c25 -7 34 -13 23 -16 -10 -2 -18 -10
-18 -18 0 -18 -13 -18 -82 3 -32 10 -58 24 -58 31 0 16 81 16 135 0z m-2411
-86 c3 -5 19 -109 36 -232 17 -124 32 -226 34 -227 1 -1 15 91 30 205 16 114
31 219 33 235 l5 27 124 0 124 0 0 -405 0 -405 -75 0 -75 0 -2 268 -3 267 -38
-245 c-21 -135 -41 -255 -44 -267 -5 -21 -11 -23 -77 -23 l-73 0 -42 253 c-23
138 -44 257 -46 262 -2 6 -4 -108 -4 -252 l-1 -263 -75 0 -75 0 0 405 0 405
119 0 c66 0 122 -4 125 -8z m772 -16 c45 -27 64 -67 71 -144 6 -80 -8 -140
-41 -171 l-23 -22 27 -28 c64 -64 63 -283 -2 -366 -35 -45 -74 -55 -218 -55
l-130 0 0 406 0 406 143 -4 c116 -3 148 -7 173 -22z m464 12 c0 -7 16 -176 35
-376 19 -200 35 -376 35 -393 l0 -29 -74 0 -74 0 -7 65 -7 65 -49 0 -48 0 -3
-62 -3 -63 -77 -3 c-78 -3 -78 -3 -78 23 0 38 70 758 75 773 6 17 275 17 275
0z m280 -133 l0 -145 40 0 40 0 0 145 0 145 80 0 80 0 0 -405 0 -405 -80 0
-80 0 0 180 0 180 -40 0 -40 0 0 -180 0 -180 -80 0 -80 0 0 405 0 405 80 0 80
0 0 -145z m815 122 c49 -27 82 -90 87 -162 l3 -50 -82 -3 -82 -3 -3 43 c-3 39
-6 43 -31 46 -30 4 -43 -14 -34 -51 4 -12 51 -67 105 -123 120 -121 138 -161
129 -285 -10 -147 -77 -215 -204 -206 -130 10 -179 67 -190 220 l-6 87 82 0
81 0 0 -44 c0 -68 10 -105 32 -112 45 -14 63 51 33 123 -8 19 -53 74 -99 122
-116 119 -138 171 -116 276 21 101 77 145 185 145 54 0 79 -6 110 -23z m473
-59 l3 -78 -81 0 -80 0 0 -80 0 -80 75 0 75 0 0 -75 0 -75 -75 0 -75 0 0 -90
0 -90 85 0 85 0 0 -80 0 -80 -170 0 -170 0 0 405 0 405 163 -2 162 -3 3 -77z
m306 74 c3 -5 19 -109 36 -232 17 -124 32 -226 34 -227 1 -1 15 91 30 205 16
114 31 219 33 235 l6 27 123 0 124 0 0 -405 0 -405 -75 0 -75 0 -2 268 -3 267
-38 -245 c-21 -135 -41 -255 -44 -267 -5 -21 -11 -23 -77 -23 l-73 0 -42 253
c-23 138 -44 257 -46 262 -2 6 -4 -108 -4 -252 l-1 -263 -75 0 -75 0 0 405 0
405 119 0 c66 0 122 -4 125 -8z m786 -4 c0 -7 16 -176 35 -376 19 -200 35
-376 35 -393 l0 -29 -74 0 -74 0 -7 65 -7 65 -49 0 -48 0 -3 -62 -3 -63 -77
-3 c-78 -3 -78 -3 -78 23 0 38 70 758 75 773 3 9 40 12 140 12 101 0 135 -3
135 -12z m452 -11 c37 -25 57 -72 64 -154 8 -88 -9 -167 -41 -191 l-23 -17 26
-28 c27 -28 27 -29 30 -213 l4 -184 -81 0 -80 0 -3 174 c-2 96 -5 176 -8 179
-3 2 -15 8 -27 11 l-23 7 0 -185 0 -186 -85 0 -85 0 0 406 0 406 153 -4 c126
-2 156 -6 179 -21z"/>
<path d="M480 4600 c0 -99 0 -100 24 -100 37 0 49 24 49 100 0 76 -12 100 -49
100 -24 0 -24 -1 -24 -100z"/>
<path d="M960 4621 c0 -79 1 -81 24 -81 37 0 47 22 44 92 l-3 63 -32 3 -33 3
0 -80z"/>
<path d="M1850 4430 c0 -302 -1 -297 51 -270 18 10 19 24 19 268 0 273 -2 282
-47 282 l-23 0 0 -280z"/>
<path d="M2302 3309 c-18 -12 -30 -24 -27 -27 2 -3 13 2 23 11 25 23 70 21
123 -3 24 -11 51 -19 59 -19 16 0 -117 58 -135 58 -5 1 -25 -9 -43 -20z"/>
<path d="M2725 3309 c-27 -12 -68 -27 -90 -34 -22 -8 -32 -14 -22 -14 10 -1
44 10 77 24 73 31 103 31 143 3 24 -17 28 -18 18 -4 -12 15 -64 47 -73 46 -2
-1 -25 -10 -53 -21z"/>
<path d="M2508 3263 c6 -2 18 -2 25 0 6 3 1 5 -13 5 -14 0 -19 -2 -12 -5z"/>
<path d="M2305 3239 c-32 -22 -27 -22 16 0 23 12 36 10 105 -14 104 -37 174
-37 277 0 l77 27 37 -22 c21 -12 31 -15 25 -7 -7 8 -26 20 -42 27 -26 11 -39
9 -107 -16 -98 -36 -162 -36 -262 0 -89 31 -88 31 -126 5z"/>
<path d="M2305 3141 c-31 -14 -65 -55 -105 -128 -33 -60 -40 -68 -64 -66 -32
2 -31 -20 1 -25 16 -2 34 16 77 77 82 118 134 136 214 75 l34 -26 -15 28 c-8
16 -24 37 -35 47 -23 21 -79 30 -107 18z"/>
<path d="M2728 3135 c-24 -13 -58 -61 -58 -80 0 -4 14 5 31 19 76 65 139 37
224 -97 32 -50 59 -67 78 -48 9 9 8 14 -3 21 -8 5 -19 10 -25 10 -5 0 -3 -5 5
-10 13 -9 13 -10 -1 -10 -9 0 -34 34 -63 85 -26 47 -58 92 -70 101 -35 22 -87
26 -118 9z"/>
<path d="M2485 3120 c3 -5 23 -14 45 -20 31 -8 47 -7 75 4 19 8 35 18 35 21 0
3 -9 1 -19 -5 -25 -13 -82 -13 -116 0 -16 6 -24 6 -20 0z"/>
<path d="M1995 3090 c-3 -5 2 -10 12 -10 11 0 25 -6 33 -12 8 -7 6 -3 -4 10
-21 24 -32 27 -41 12z"/>
<path d="M3092 3084 c-29 -20 -28 -45 3 -74 28 -27 32 -40 10 -40 -9 0 -12 -6
-9 -15 5 -12 10 -13 20 -4 22 18 17 47 -12 65 -32 21 -29 56 6 64 14 3 20 9
14 13 -6 3 -20 -1 -32 -9z"/>
<path d="M2365 3040 c18 -7 18 -8 -8 -15 -15 -4 -39 -21 -54 -39 -20 -24 -34
-31 -62 -31 -30 0 -37 -4 -39 -22 -4 -30 19 -30 65 -2 30 19 38 20 82 9 59
-14 87 -3 97 37 6 21 1 31 -20 50 -15 13 -39 23 -54 22 -24 0 -25 -1 -7 -9z
m68 -42 c24 -38 -38 -60 -111 -39 l-24 6 25 23 24 23 6 -22 c7 -26 31 -20 35
10 4 25 29 25 45 -1z"/>
<path d="M2702 3034 c-31 -21 -30 -69 3 -90 21 -14 32 -14 73 -4 44 10 53 9
83 -9 44 -27 61 -27 57 2 -2 17 -9 22 -35 22 -22 0 -42 10 -65 31 -18 18 -44
35 -58 39 -24 8 -24 8 -5 16 18 7 17 8 -5 8 -14 1 -36 -6 -48 -15z m30 -36 c4
-29 28 -35 35 -9 7 26 15 26 38 1 22 -24 20 -26 -31 -38 -52 -12 -84 0 -84 31
0 41 36 54 42 15z"/>
<path d="M2018 3017 c-32 -26 -34 -34 -13 -73 8 -16 15 -24 15 -17 0 6 3 19 7
29 4 11 3 15 -5 10 -24 -15 -23 18 2 40 22 22 32 35 24 34 -2 -1 -15 -11 -30
-23z"/>
<path d="M2535 3030 c-3 -6 1 -7 9 -4 18 7 21 14 7 14 -6 0 -13 -4 -16 -10z"/>
<path d="M2668 2930 c6 -15 18 -24 38 -26 26 -3 27 -2 9 8 -11 6 -28 18 -38
26 -17 15 -17 14 -9 -8z"/>
<path d="M2428 2924 c-34 -18 -36 -24 -5 -17 21 4 20 3 -6 -21 -15 -14 -24
-26 -19 -26 11 0 47 41 55 63 4 9 5 17 4 17 -1 -1 -14 -8 -29 -16z"/>
<path d="M2303 2923 c9 -2 23 -2 30 0 6 3 -1 5 -18 5 -16 0 -22 -2 -12 -5z"/>
<path d="M2793 2923 c9 -2 23 -2 30 0 6 3 -1 5 -18 5 -16 0 -22 -2 -12 -5z"/>
<path d="M2704 2876 c11 -9 24 -16 30 -16 12 0 7 5 -24 19 -24 11 -24 11 -6
-3z"/>
<path d="M2620 2874 c0 -5 9 -15 19 -21 11 -7 22 -23 24 -35 4 -17 5 -15 4 6
-1 18 -11 35 -24 44 -13 8 -23 10 -23 6z"/>
<path d="M2466 2854 c-9 -8 -16 -23 -15 -32 0 -12 3 -10 9 6 5 12 20 27 32 32
16 6 18 9 6 9 -9 1 -24 -6 -32 -15z"/>
<path d="M1936 2814 c-20 -19 -20 -48 -1 -64 17 -14 37 -9 41 11 1 7 5 22 9
31 10 25 -29 43 -49 22z"/>
<path d="M2480 2815 c0 -8 9 -15 19 -15 11 0 23 -4 26 -10 3 -5 10 -10 15 -10
5 0 -1 11 -14 25 -26 28 -46 32 -46 10z"/>
<path d="M2599 2803 c-13 -16 -17 -22 -9 -15 8 6 22 12 32 12 10 0 18 7 18 15
0 22 -14 18 -41 -12z"/>
<path d="M3145 2817 c-20 -16 -17 -56 7 -70 12 -8 21 -7 32 2 38 32 1 96 -39
68z m7 -42 c3 -13 1 -22 -3 -19 -9 5 -13 44 -5 44 2 0 6 -11 8 -25z"/>
<path d="M2133 2785 c-11 -8 -23 -25 -26 -37 -6 -20 -4 -20 16 6 12 15 38 31
57 36 l35 8 -30 1 c-17 1 -40 -6 -52 -14z"/>
<path d="M2940 2793 c29 -6 59 -30 71 -58 7 -18 8 -18 8 -2 1 28 -44 67 -76
66 -27 -2 -27 -2 -3 -6z"/>
<path d="M2173 2750 c-47 -28 -52 -70 -19 -174 29 -94 33 -138 12 -155 -10 -9
-16 -8 -25 3 -17 20 -10 62 9 58 11 -3 12 -1 3 8 -17 19 -33 2 -33 -34 0 -59
55 -83 80 -35 16 28 12 64 -16 144 -38 110 -24 165 43 165 26 0 42 -9 73 -40
23 -24 49 -40 62 -40 13 0 52 14 88 31 43 21 80 32 110 32 30 0 67 -11 110
-32 36 -17 75 -31 88 -31 12 0 42 18 66 40 51 47 95 54 120 18 21 -30 20 -73
-3 -141 -31 -89 -32 -151 -2 -167 27 -14 47 -4 61 30 9 21 9 34 0 49 -16 30
-20 26 -13 -15 7 -40 -11 -61 -34 -42 -20 16 -16 61 12 140 34 98 33 141 -4
179 -46 46 -98 39 -169 -22 -39 -34 -48 -35 -130 -9 -80 25 -124 25 -197 0
-77 -27 -98 -25 -137 9 -65 56 -102 64 -155 31z"/>
<path d="M2445 2745 c-33 -13 -51 -24 -40 -24 21 -1 105 34 105 44 0 6 7 8
-65 -20z"/>
<path d="M2655 2739 c22 -10 49 -18 60 -18 11 0 -2 9 -30 19 -63 25 -83 24
-30 -1z"/>
<path d="M2205 2680 c-34 -37 -6 -129 51 -167 23 -15 35 -15 117 -4 67 9 100
10 120 2 36 -14 108 -14 143 0 20 7 53 7 114 -2 74 -11 89 -10 116 4 58 30 89
153 45 177 -26 14 -24 15 -71 -25 -54 -45 -96 -46 -165 -5 -71 42 -154 42
-228 0 -73 -41 -112 -40 -163 5 -45 40 -54 42 -79 15z m403 -54 c-2 -10 -7
-13 -17 -7 -8 6 -11 16 -7 27 8 21 30 4 24 -20z m-65 9 c1 -5 -6 -11 -15 -13
-11 -2 -18 3 -18 13 0 17 30 18 33 0z"/>
<path d="M2071 2532 c-1 -28 -5 -41 -12 -37 -5 4 3 -20 20 -52 50 -101 125
-150 301 -198 47 -12 98 -28 113 -34 39 -15 111 -14 152 3 18 8 68 24 110 35
104 29 194 71 233 111 37 37 96 145 88 163 -2 7 -5 4 -5 -5 -1 -9 -6 -20 -13
-24 -8 -5 -9 -2 -5 10 4 9 3 15 -2 12 -5 -3 -11 -23 -15 -44 -10 -65 -56 -116
-138 -155 -76 -36 -178 -70 -186 -62 -3 2 1 13 9 22 7 10 0 6 -16 -9 -82 -74
-207 -76 -283 -5 -17 16 -21 17 -17 5 6 -15 2 -15 -52 -1 -32 8 -69 22 -83 31
-14 9 -29 17 -35 18 -5 0 -16 2 -23 2 -20 3 -103 84 -114 112 -6 14 -14 52
-18 85 -7 54 -7 56 -9 17z"/>
<path d="M2490 2450 c8 -5 26 -10 39 -10 32 0 24 6 -19 14 -25 4 -31 3 -20 -4z"/>
<path d="M2600 2450 c-21 -7 -21 -8 -5 -9 11 0 27 4 35 9 18 11 5 11 -30 0z"/>
<path d="M2553 2383 c9 -2 23 -2 30 0 6 3 -1 5 -18 5 -16 0 -22 -2 -12 -5z"/>
<path d="M2455 2279 c11 -17 71 -39 107 -39 33 0 125 36 116 45 -2 3 -22 -4
-43 -15 -50 -26 -100 -25 -149 1 -21 11 -35 15 -31 8z"/>
<path d="M2964 1877 c-15 -13 -24 -29 -20 -35 9 -14 86 -36 95 -26 3 4 0 9 -6
11 -7 3 -13 9 -13 14 0 6 5 7 11 3 13 -8 29 13 29 39 0 27 -62 23 -96 -6z"/>
<path d="M2546 1309 c-8 -12 -27 -30 -42 -40 l-27 -17 57 -7 c36 -5 61 -4 68
3 6 6 18 8 27 5 9 -3 7 1 -6 11 -12 9 -31 28 -42 41 l-19 26 -16 -22z"/>
<path d="M1610 1955 c0 -2 24 -17 52 -31 38 -19 49 -22 39 -10 -23 27 -91 58
-91 41z"/>
<path d="M1550 1810 c0 -6 12 -15 28 -21 15 -6 45 -27 66 -47 l40 -37 -34 40
c-47 57 -100 91 -100 65z"/>
<path d="M1040 720 c0 -79 2 -90 18 -90 32 0 43 17 48 71 7 70 -7 109 -41 109
-25 0 -25 0 -25 -90z"/>
<path d="M1040 385 l0 -117 28 7 c15 3 31 11 37 16 13 13 19 127 8 169 -8 30
-14 35 -41 38 l-32 3 0 -116z"/>
<path d="M1502 609 c-16 -241 -19 -219 24 -219 29 0 34 3 30 18 -2 9 -10 89
-17 177 -7 88 -15 171 -19 184 -3 14 -12 -58 -18 -160z"/>
<path d="M4162 609 c-16 -241 -19 -219 24 -219 29 0 34 3 30 18 -2 9 -10 89
-17 177 -7 88 -15 171 -19 184 -3 14 -12 -58 -18 -160z"/>
<path d="M4610 716 c0 -74 1 -76 25 -76 30 0 45 26 45 77 0 47 -8 60 -43 68
l-27 7 0 -76z"/>
</g>
</svg>
